<svg width="200" height="84" viewBox="0 0 200 84" fill="none" xmlns="http://www.w3.org/2000/svg">
<g clip-path="url(#clip0_64_129)">
<path d="M189.522 72.5042C188.095 72.505 186.668 72.5056 185.241 72.5062C185.341 72.3286 185.442 72.1509 185.543 71.9732C186.241 70.7394 186.975 70.3431 188.563 70.3425C189.291 70.3421 190.019 70.3417 190.746 70.3413C190.338 71.0623 189.93 71.7832 189.522 72.5042Z" fill="black"/>
<path d="M184.9 80.8611C186.212 78.5454 187.524 76.2295 188.835 73.9139C187.408 73.9144 185.981 73.9148 184.554 73.9154C183.422 75.9144 182.29 77.9133 181.158 79.912C180.775 80.5873 180.252 80.863 179.353 80.8636C175.885 80.8649 172.417 80.8663 168.948 80.8677C170.351 78.3909 171.754 75.9142 173.156 73.4376C173.75 72.3912 173.974 72.3165 175.359 72.3165C175.774 72.3163 176.189 72.3161 176.603 72.3161C177.818 72.3155 178.39 72.029 178.87 71.1804C179.064 70.8379 179.258 70.4953 179.451 70.1528C177.973 70.1534 176.494 70.1541 175.015 70.1549C175.651 69.0305 176.287 67.9062 176.923 66.782C175.991 66.7824 175.058 66.7828 174.125 66.7832C172.907 66.7835 172.335 67.0675 171.859 67.9087C171.435 68.658 171.011 69.4072 170.587 70.1563C169.811 70.1567 169.034 70.1568 168.258 70.157C167.85 70.878 167.441 71.5988 167.033 72.3196C167.81 72.3194 168.587 72.3192 169.363 72.3188C168.885 73.1633 165.537 79.0749 165.059 79.9194C164.677 80.5939 164.155 80.869 163.259 80.8696C160.177 80.8708 157.095 80.8717 154.014 80.8727C155.652 78.244 157.29 75.6152 158.929 72.9867C157.797 72.9859 156.667 72.9867 155.535 72.9867C154.742 72.9865 154.403 73.213 153.907 73.7331C153.904 73.1648 153.671 72.9865 153.05 72.9861C152.265 72.9854 151.482 72.9838 150.696 72.9844C146.833 72.9867 144.675 74.0329 142.997 76.7242C142.33 77.7937 141.664 78.8631 140.997 79.9324C140.579 80.603 140.058 80.8766 139.199 80.8766C137.214 80.8771 135.228 80.8775 133.243 80.8779C131.085 80.8785 130.241 80.6059 130.002 79.6133C129.745 78.5441 130.292 77.6761 133.179 75.9955C133.724 75.6782 134.269 75.3611 134.814 75.0439C135.575 74.601 135.882 74.3704 135.781 73.8903C135.69 73.461 135.394 72.9877 133.034 72.9879C129.3 72.9885 125.566 72.9889 121.831 72.9892C120.646 72.9892 120.094 73.2651 119.559 74.1249C118.351 76.0634 117.142 78.002 115.935 79.9405C115.519 80.6076 114.998 80.8799 114.137 80.8799C108.143 80.88 102.15 80.8802 96.1572 80.8804C96.4131 80.2204 96.6689 79.5605 96.9246 78.9003C99.9175 78.9003 102.91 78.9003 105.903 78.9001C107.674 78.9001 108.409 78.498 109.047 77.1784C109.333 76.5877 109.619 75.997 109.905 75.4064C110.12 74.9615 110.3 74.3299 109.936 73.8475C109.513 73.2864 108.428 72.99 106.797 72.9902C103.924 72.9902 101.05 72.9904 98.176 72.9904C95.42 72.9904 94.1624 73.6647 93.195 75.6638C92.5983 76.8969 92.0014 78.1301 91.4047 79.3634C90.7937 80.6262 89.824 80.88 88.4566 80.88C86.4009 80.8798 84.3453 80.8798 82.2899 80.8797C82.4192 80.7091 82.5484 80.5385 82.6777 80.368C83.8978 78.7589 83.6635 76.9687 82.0354 75.4561C80.4366 73.971 78.3143 73.4459 76.4336 72.9889C74.835 72.9887 73.2365 72.9885 71.6381 72.9883C70.5385 74.7528 69.4389 76.517 68.3395 78.2813C66.9637 80.4884 65.4688 80.8769 62.8313 80.8768C60.8965 80.8768 58.962 80.8762 57.0273 80.8758C58.6664 78.2461 60.3054 75.6164 61.9443 72.9867C60.8083 72.986 59.6738 72.9867 58.5376 72.9867C57.745 72.9865 57.4053 73.213 56.9101 73.7331C56.9068 73.1648 56.6743 72.9865 56.0527 72.9861C55.2723 72.9854 54.4927 72.9838 53.7112 72.9844C49.8488 72.9867 47.6904 74.0329 46.0126 76.7242C45.3458 77.7937 44.6792 78.8631 44.0123 79.9324C43.5915 80.608 43.0876 80.8717 42.2141 80.8713C39.2658 80.8706 36.3177 80.8696 33.3693 80.8686C35.8688 76.8576 38.3682 72.8466 40.8677 68.8353C41.3066 68.131 40.7258 67.2712 39.8111 67.2712C28.1042 67.2712 16.3976 67.2712 4.69095 67.2712C2.30732 67.2712 1.12851 67.8015 -3.8147e-06 69.486C5.06131 69.4881 10.1224 69.4903 15.1837 69.4924C12.3622 74.0184 9.54093 78.5444 6.71943 83.0705C8.1764 83.0705 9.63336 83.0705 11.0903 83.0705C13.9114 78.545 16.7324 74.0196 19.5535 69.4942C21.5802 69.4949 23.6069 69.4959 25.6337 69.4967C22.8133 74.0213 19.9929 78.5458 17.1725 83.0705C18.6295 83.0705 20.0864 83.0705 21.5434 83.0705C24.3633 78.5464 27.1833 74.0223 30.0035 69.4982C32.0302 69.4988 34.0569 69.4996 36.0839 69.5002C33.756 73.2351 31.428 76.9701 29.1002 80.7052C28.7812 81.2171 28.4713 81.9323 28.8083 82.4308C29.0909 82.8492 29.8014 83.0705 30.8624 83.0705C34.7017 83.0705 38.541 83.0705 42.3802 83.0705C42.9456 83.0705 43.1876 82.9086 43.5396 82.5392C43.542 82.9442 43.9292 83.0705 44.3712 83.0705C50.9738 83.0705 57.5763 83.0705 64.1788 83.0705C68.1079 83.0705 70.1966 82.0628 71.886 79.3523C72.7558 77.9567 73.6258 76.561 74.4958 75.1651C74.5256 75.1702 74.7342 75.205 74.764 75.21C77.8851 75.7314 79.468 76.7471 79.6025 78.3148C79.6577 78.9564 79.4285 79.5403 78.9403 80.004C78.358 80.5567 77.4633 80.8758 76.4855 80.8789C74.4903 80.8853 73.6906 81.5648 72.9151 83.0705C78.5049 83.0705 84.095 83.0705 89.685 83.0705C90.2504 83.0705 90.4923 82.9086 90.8444 82.5392C90.8466 82.9442 91.2337 83.0705 91.6758 83.0705C99.9439 83.0705 108.212 83.0705 116.48 83.0705C118.154 83.0705 118.879 82.6829 119.715 81.3426C120.683 79.7891 121.651 78.2356 122.62 76.6822C123.282 75.6189 124.104 75.2046 125.551 75.2046C127.009 75.2042 128.466 75.204 129.923 75.2039C129.188 75.6546 128.361 76.2307 127.732 76.7937C126.903 77.5406 126.102 78.5729 125.957 79.9086C125.855 80.8409 126.115 81.637 126.709 82.2103C127.292 82.7731 128.148 83.0705 129.184 83.0705C132.583 83.0705 135.982 83.0705 139.38 83.0705C139.946 83.0705 140.188 82.9086 140.54 82.5392C140.542 82.9442 140.929 83.0705 141.371 83.0705C148.523 83.0705 155.675 83.0705 162.827 83.0705C163.392 83.0705 163.634 82.9086 163.986 82.5392C163.988 82.9442 164.375 83.0705 164.817 83.0705C175.394 83.0705 185.971 83.0705 196.548 83.0705C198.459 83.0705 199.429 82.5247 199.791 81.2461C199.827 81.1159 199.864 80.9854 199.901 80.8551C194.901 80.8572 189.901 80.8591 184.9 80.8611ZM97.9805 76.1902C98.4127 75.1032 99.413 75.0122 100.316 75.0122C101.946 75.0122 103.576 75.0122 105.206 75.0122C105.094 75.303 104.981 75.5936 104.868 75.8842C104.472 76.9071 103.574 76.9929 102.763 76.9929C101.063 76.9929 99.362 76.9929 97.6616 76.9929C97.7679 76.7254 97.8742 76.4578 97.9805 76.1902ZM53.5131 79.3868C52.8373 80.471 52.0434 80.8748 50.5813 80.874C49.7753 80.8735 48.9693 80.8731 48.1633 80.8725C49.035 79.4741 49.9068 78.0755 50.7785 76.6771C51.4407 75.6145 52.2622 75.2002 53.7075 75.2002C54.5126 75.2002 55.3177 75.2002 56.1229 75.2002C55.2529 76.5958 54.3829 77.9913 53.5131 79.3868ZM150.498 79.3868C149.822 80.471 149.028 80.8748 147.566 80.874C146.76 80.8735 145.954 80.8731 145.148 80.8725C146.02 79.4741 146.891 78.0755 147.763 76.6771C148.426 75.6145 149.247 75.2002 150.692 75.2002C151.497 75.2002 152.302 75.2002 153.107 75.2002C152.237 76.5958 151.367 77.9913 150.498 79.3868Z" fill="black"/>
<path d="M95.5538 54.3686C95.5538 53.6273 95.5538 52.8859 95.5538 52.1445C97.5039 52.1445 99.454 52.1445 101.404 52.1445C103.354 52.1445 105.304 52.1445 107.255 52.1445C107.255 52.8859 107.255 53.6273 107.255 54.3686C105.304 54.3686 103.354 54.3686 101.404 54.3686C99.4542 54.3686 97.5039 54.3686 95.5538 54.3686Z" fill="black"/>
<path d="M101.404 58.9753C102.634 58.9753 103.863 58.9753 105.093 58.9753C105.093 57.8232 105.093 56.6712 105.093 55.5193C103.863 55.5193 102.634 55.5193 101.404 55.5193C100.175 55.5193 98.9452 55.5193 97.7158 55.5193C97.7158 56.6712 97.7158 57.8232 97.7158 58.9753C98.9452 58.9753 100.175 58.9753 101.404 58.9753Z" fill="black"/>
<path d="M97.7158 50.9939C97.705 49.0856 97.1948 47.2231 95.6276 45.9551C97.553 45.9551 99.4786 45.9551 101.404 45.9551C103.33 45.9551 105.255 45.9551 107.181 45.9551C105.614 47.2231 105.103 49.0856 105.093 50.9939C103.863 50.9939 102.634 50.9939 101.404 50.9939C100.175 50.9939 98.9452 50.9939 97.7158 50.9939Z" fill="black"/>
<path d="M87.9455 42.2853C87.9455 41.7379 87.9455 41.1907 87.9455 40.6433C92.4316 40.6433 96.9178 40.6433 101.404 40.6433C105.89 40.6433 110.377 40.6433 114.863 40.6433C114.863 41.1907 114.863 41.7379 114.863 42.2853C110.377 42.2853 105.89 42.2853 101.404 42.2853C96.918 42.2853 92.4316 42.2853 87.9455 42.2853Z" fill="black"/>
<path d="M89.1498 48.2042C90.7212 47.8764 92.417 47.0181 93.5413 45.9551C91.9811 45.9551 90.421 45.9551 88.8608 45.9551C88.9571 46.7048 89.0535 47.4545 89.1498 48.2042Z" fill="black"/>
<path d="M113.659 48.2042C112.087 47.8764 110.391 47.0181 109.267 45.9551C110.827 45.9551 112.387 45.9551 113.947 45.9551C113.851 46.7048 113.755 47.4545 113.659 48.2042Z" fill="black"/>
<path d="M87.4916 37.042C86.0164 28.5352 83.1688 19.6775 80.0342 13.8513C83.3988 15.6297 87.0155 18.4508 90.8842 22.3148C89.2793 21.8933 87.6744 21.5624 86.0695 21.322C88.3071 26.4731 90.1556 31.7309 91.836 37.042C90.3879 37.042 88.9397 37.042 87.4916 37.042Z" fill="black"/>
<path d="M115.317 37.042C116.792 28.5352 119.639 19.6775 122.774 13.8513C119.409 15.6297 115.793 18.4508 111.924 22.3148C113.529 21.8933 115.134 21.5624 116.739 21.322C114.501 26.4731 112.653 31.7309 110.972 37.042C112.42 37.042 113.869 37.042 115.317 37.042Z" fill="black"/>
<path d="M86.5186 39.7872C86.5186 39.2328 86.5186 38.6784 86.5186 38.124C91.4804 38.124 96.4422 38.124 101.404 38.124C106.366 38.124 111.328 38.124 116.29 38.124C116.29 38.6784 116.29 39.2328 116.29 39.7872C111.328 39.7872 106.366 39.7872 101.404 39.7872C96.4424 39.7872 91.4804 39.7872 86.5186 39.7872Z" fill="black"/>
<path d="M96.3877 12.9522C98.686 9.10185 100.658 4.72526 101.404 0.191895C102.15 4.72526 104.122 9.10185 106.421 12.9522C105.602 12.5924 104.735 12.2133 103.775 11.7981C102.943 11.4385 102.589 11.6506 102.617 12.4855C102.894 20.6631 104.129 29.9611 108.512 37.042C106.791 37.042 105.07 37.042 103.348 37.042C102.539 35.1582 101.891 33.299 101.404 31.4643C100.917 33.299 100.269 35.1582 99.46 37.042C97.7386 37.042 96.0172 37.042 94.2959 37.042C98.6795 29.961 99.9145 20.6631 100.191 12.4855C100.219 11.6506 99.8656 11.4385 99.0336 11.7981C98.0732 12.2133 97.2061 12.5924 96.3877 12.9522Z" fill="black"/>
<path d="M86.5186 44.8045C86.5186 44.2501 86.5186 43.6958 86.5186 43.1414C91.4804 43.1414 96.4422 43.1414 101.404 43.1414C106.366 43.1414 111.328 43.1414 116.29 43.1414C116.29 43.6958 116.29 44.2501 116.29 44.8045C111.328 44.8045 106.366 44.8045 101.404 44.8045C96.4424 44.8045 91.4804 44.8045 86.5186 44.8045Z" fill="black"/>
</g>
<defs>
<clipPath id="clip0_64_129">
<rect width="200" height="83.3333" fill="white"/>
</clipPath>
</defs>
</svg>
