<svg width="200" height="50" viewBox="0 0 200 50" fill="none" xmlns="http://www.w3.org/2000/svg">
<path d="M6.83061 21.433L6.96722 21.2205C6.97477 21.3012 6.97477 21.3825 6.96722 21.4633H6.84579" fill="#005588"/>
<path d="M67.7444 7.27077V7.02791H67.9569V6.43592C47.8294 4.84212 27.5653 9.10745 14.83 15.5434C13.7978 16.0747 12.796 16.6211 11.7942 17.1827C10.6119 17.8816 9.46689 18.6416 8.3637 19.4596L7.9994 19.7328L7.90833 20.598L8.54585 20.2337L9.65392 19.5962C11.0504 18.8373 12.5076 18.1087 14.0255 17.4104C15.2095 16.864 16.439 16.3479 17.6837 15.8925C32.0735 10.17 50.6375 7.45292 65.3916 9.68425V9.47175H65.6497V9.12263L67.7444 9.35032V9.13781H67.9569V8.72797H68.1694V8.51547L67.0765 8.40921V8.1967H67.2738V7.99938H67.0613V7.77169L68.9132 7.96902V7.77169H69.1257V7.42257L67.3042 7.21006" fill="#005588"/>
<path d="M4.06799 25.5921C4.06799 25.501 4.15907 25.4099 4.18943 25.3188V25.5921" fill="#005588"/>
<path d="M19.6873 16.0596C18.3516 16.5757 17.0765 17.0918 15.847 17.5775C14.2077 18.2909 12.6594 19.0043 11.2933 19.7481C10.8834 19.9454 10.4888 20.1579 10.1093 20.3705L8.07531 21.4937L7.81726 21.6455V22.9509L10.2915 21.7821L12.7657 20.674L14.1773 20.0972C15.9684 19.3535 17.7899 18.6704 19.6418 18.0177C21.1597 17.5016 22.6776 17.0007 24.2714 16.4998C36.2032 13.037 48.69 11.9032 61.0504 13.1604V12.7809H61.2933V12.6291L59.7754 12.4621V12.0675H60.0031V11.8853H60.6558V11.4907H60.9138V11.3085L61.8397 11.3996V10.9898H62.1281V10.8228H62.7505V10.8076H62.9933V10.6558H62.3255V10.4737L64.147 10.6558V10.4737H64.405V10.2612C49.1773 8.66353 33.7872 10.6653 19.4748 16.1051" fill="#005588"/>
<path d="M49.0589 24.4687C49.0589 24.2259 48.9374 23.9526 48.8616 23.7098C48.5781 22.7304 48.1591 21.7954 47.6169 20.932C47.3117 20.4411 46.95 19.9877 46.5391 19.5811L45.7195 20.7347L44.3078 22.7383L44.7177 23.2696L45.3552 24.0893C45.7341 24.5673 46.0742 25.0749 46.3722 25.6072C47.085 27.0184 47.4494 28.5799 47.4347 30.1609C47.4347 30.2672 47.4347 30.3582 47.4347 30.4493C47.5567 30.3823 47.6734 30.3062 47.7838 30.2216C48.3846 29.693 48.8397 29.0191 49.1055 28.2643C49.3712 27.5095 49.4388 26.6991 49.3017 25.9107C49.2595 25.4464 49.1885 24.9851 49.0892 24.5294" fill="#005588"/>
<path d="M51.7911 21.4329C51.6999 20.7467 51.5266 20.0741 51.2751 19.4292C50.8124 18.1517 50.0828 16.9874 49.1348 16.0139L47.0401 19.0497V19.1408C47.6694 19.7557 48.2293 20.4378 48.7098 21.1748C49.2367 22.026 49.6165 22.96 49.833 23.9374C49.833 24.1803 49.9241 24.4383 49.9545 24.6964C50.0248 25.1489 50.0704 25.605 50.0911 26.0625C50.0911 26.6241 50.0911 27.2009 50.0911 27.8536C50.5817 27.3784 50.9738 26.811 51.2447 26.1839C51.4366 25.7654 51.5842 25.3278 51.6849 24.8785C51.7452 24.6387 51.7908 24.3953 51.8215 24.1499C51.9498 23.2742 51.9498 22.3845 51.8215 21.5088" fill="#005588"/>
<path d="M45.3855 25.4553C45.115 24.9137 44.7841 24.4045 44.3989 23.9374C44.241 23.7557 44.0627 23.5927 43.8676 23.4517L43.564 23.8615L42.6685 25.1214L41.7122 26.4419C42.5658 27.4508 43.2899 28.5624 43.8676 29.751C44.3133 30.5909 44.6353 31.4906 44.8239 32.4225L46.5088 31.2993C46.7517 31.1475 46.8427 30.6921 46.782 30.0546C46.6085 28.46 46.1292 26.9139 45.3704 25.5008" fill="#005588"/>
<path d="M38.1755 38.7068C27.0492 42.7141 15.6952 40.4676 9.33515 35.671C5.6618 32.9084 3.59744 29.3109 4.18943 25.592C3.36736 27.0461 2.93534 28.688 2.93534 30.3583C2.93534 32.0286 3.36736 33.6705 4.18943 35.1245C9.30479 43.7918 29.2653 45.9776 40.9077 38.98C42.5892 37.9199 44.0991 36.6096 45.3855 35.0942C43.1175 36.5526 40.6942 37.7541 38.1603 38.6764" fill="#005588"/>
<path d="M62.3254 19.4749H67.8203L73.4062 28.7189H73.4669L75.7741 19.4749H80.7073L77.0947 33.9406H71.6758L65.9836 24.8331H65.9229L63.6612 33.9406H58.728L62.3254 19.4749Z" fill="#005588"/>
<path d="M91.8337 34.3503C84.912 34.3503 81.7547 30.768 82.7262 26.7607C83.6977 22.7534 88.6764 19.1711 95.5981 19.1711C102.52 19.1711 105.677 22.7534 104.706 26.7607C103.734 30.768 98.7553 34.3503 91.8337 34.3503ZM94.8695 22.1159C91.6971 22.1159 88.9952 23.4517 88.1755 26.6696C87.6594 28.7795 88.3121 31.2234 92.5774 31.2234C94.0474 31.354 95.5173 30.9719 96.7376 30.1418C97.9578 29.3117 98.8531 28.0849 99.2714 26.6696C99.8482 24.4687 98.9071 22.1159 94.8847 22.1159H94.8695Z" fill="#005588"/>
<path d="M110.383 19.4749H121.281C126.154 19.4749 128.764 20.9928 127.96 24.2259C127.489 26.1081 125.349 27.5957 122.495 28.127L126.017 33.9406H119.945L116.91 28.7341H113.494L112.174 33.9406H106.77L110.383 19.4749ZM114.162 26.0626H119.126C120.871 26.0626 122.162 25.4554 122.511 24.1045C122.86 22.7535 121.843 22.1767 120.097 22.1616H115.209L114.162 26.0626Z" fill="#005588"/>
<path d="M132.832 19.4749H141.257C147.86 19.4749 151.791 21.5696 150.501 26.7153C149.211 31.861 144.262 33.9406 137.644 33.9406H129.235L132.832 19.4749ZM135.413 30.8895H138.449C142.502 30.8895 144.429 29.0529 145.006 26.7153C145.583 24.3777 144.596 22.5259 140.452 22.5259H137.417L135.413 30.8895Z" fill="#005588"/>
<path d="M152.58 33.9406L156.178 19.4749H172.146L171.448 22.283H160.914L160.246 24.9242H170.097L169.399 27.7171H159.548L158.698 31.1324H170.158L169.46 33.9406H152.58Z" fill="#005588"/>
<path d="M181.299 26.1537L175.804 19.4749H182.392L185.246 23.8768L190.285 19.4749H196.767L187.978 26.1537L194.353 33.9406H187.705L184.062 28.5368L177.565 33.9406H171.008L181.299 26.1537Z" fill="#005588"/>
</svg>
