<svg width="150" height="150" viewBox="0 0 150 150" fill="none" xmlns="http://www.w3.org/2000/svg">
<g clip-path="url(#clip0_64_11577)">
<path d="M75.0892 142.66C37.9275 142.66 7.48172 112.065 7.48172 74.903C7.48172 66.5453 8.97416 58.6354 11.8098 51.1732L51.3594 130.72C51.8072 131.765 52.5534 132.66 53.7474 132.66C54.9413 132.66 55.6875 131.765 56.1353 130.72L74.343 89.9766C74.4923 89.5289 74.7907 89.0812 75.2385 89.0812C75.6862 89.0812 75.8355 89.5289 76.1339 89.9766L94.3417 130.72C94.7895 131.765 95.5357 132.66 96.7296 132.66C97.9236 132.66 98.6698 131.765 99.1175 130.72L138.667 51.1732C141.503 58.6354 142.995 66.5453 142.995 74.903C142.697 112.065 112.251 142.66 75.0892 142.66ZM75.0892 59.5309C74.6415 59.5309 74.4923 59.0831 74.1938 58.6354L53.0011 10.8773C59.8664 8.34018 67.3286 6.99698 75.0892 6.99698C82.8499 6.99698 90.3121 8.34018 97.1774 10.8773L75.9847 58.6354C75.6862 59.2324 75.537 59.5309 75.0892 59.5309ZM53.4489 108.632C53.0011 108.632 52.8519 108.184 52.5534 107.737L18.2273 38.4875C24.3463 29.0851 32.5547 21.1752 42.5541 15.6531L67.3286 70.7242C67.627 71.6196 68.3733 71.9181 69.1195 71.9181H81.059C81.9545 71.9181 82.5514 71.7689 82.9992 70.7242L107.774 15.6531C117.624 21.1752 125.981 29.0851 132.1 38.4875L97.4758 107.737C97.3266 108.184 97.0281 108.632 96.5804 108.632C96.1326 108.632 95.9834 108.184 95.6849 107.737L82.7007 78.1864C82.253 77.1416 81.656 76.9924 80.7605 76.9924H68.821C67.9255 76.9924 67.3286 77.1416 66.8808 78.1864L54.3443 107.737C54.1951 108.184 53.8966 108.632 53.4489 108.632ZM75.0892 149.525C116.43 149.525 149.711 116.244 149.711 74.903C149.711 33.5624 116.43 0.281006 75.0892 0.281006C33.7487 0.281006 0.467255 33.5624 0.467255 74.903C0.467255 116.244 33.7487 149.525 75.0892 149.525Z" fill="#001E50"/>
</g>
<defs>
<clipPath id="clip0_64_11577">
<rect width="150" height="150" fill="white"/>
</clipPath>
</defs>
</svg>
