<?xml version="1.0" encoding="UTF-8"?>
<svg xmlns="http://www.w3.org/2000/svg" xmlns:xlink="http://www.w3.org/1999/xlink" width="100px" height="100px" viewBox="0 0 100 100" version="1.1">
<g id="surface1">
<path style=" stroke:none;fill-rule:nonzero;fill:rgb(45.882353%,55.294118%,59.215686%);fill-opacity:1;" d="M 1.160156 6.757812 C -0.386719 5.214844 -0.386719 2.707031 1.160156 1.160156 C 2.703125 -0.386719 5.210938 -0.386719 6.757812 1.160156 L 49.949219 44.351562 L 93.144531 1.160156 C 94.6875 -0.386719 97.195312 -0.386719 98.742188 1.160156 C 100.289062 2.707031 100.289062 5.214844 98.742188 6.757812 L 55.546875 49.949219 L 98.742188 93.144531 C 100.285156 94.6875 100.285156 97.195312 98.742188 98.742188 C 97.195312 100.289062 94.6875 100.289062 93.140625 98.742188 L 49.949219 55.550781 L 6.757812 98.742188 C 5.210938 100.289062 2.707031 100.289062 1.160156 98.742188 C -0.386719 97.195312 -0.386719 94.691406 1.160156 93.144531 L 44.351562 49.949219 Z M 1.160156 6.757812 "/>
</g>
</svg>
