<svg width="300" height="81" viewBox="0 0 300 81" fill="none" xmlns="http://www.w3.org/2000/svg">
<path d="M196.631 24.6582C188.099 24.6582 183.878 29.9915 183.878 37.3246V44.2996C183.878 51.5438 188.145 56.9214 196.631 56.9214C205.21 56.9214 209.431 51.5438 209.431 44.2996V37.3246C209.431 29.9915 205.21 24.6582 196.631 24.6582ZM227.468 24.6582C219.78 24.6582 215.513 29.457 215.513 36.2568V45.3212C215.513 52.1244 219.957 56.9214 227.249 56.9214C234.759 56.9214 238.23 52.9649 238.674 47.2326H233.339C233.161 50.5667 231.475 52.5664 227.384 52.5664C223.386 52.5664 221.206 49.8115 221.206 45.6787V35.9026C221.206 31.7698 223.381 28.9688 227.473 28.9688C231.382 28.9688 233.068 30.8801 233.246 34.2581H238.539C238.4 28.8351 234.755 24.6582 227.468 24.6582ZM105.342 25.2366L95.8327 56.3464H101.478L103.826 48.1685H114.581L117.165 56.3464H122.942L112.943 25.2366H105.342ZM127.125 25.2366V46.2967C127.125 52.3417 130.505 56.9198 137.258 56.9198C138.046 56.94 138.828 56.8781 139.604 56.7353C140.38 56.5946 141.135 56.372 141.865 56.0762C142.595 55.7769 143.287 55.4065 143.941 54.9656C144.594 54.5235 145.199 54.0193 145.747 53.4546L146.053 56.3431H151.035V25.2366H145.434V49.1077C145.046 49.6556 144.599 50.1514 144.089 50.5924C143.578 51.0322 143.026 51.4058 142.425 51.7129C141.826 52.0177 141.197 52.2475 140.542 52.4016C139.886 52.5546 139.222 52.6281 138.549 52.6191C134.282 52.6191 132.726 50.0835 132.726 46.5323V25.2366L127.125 25.2366ZM156.774 25.2366V29.5455H165.528V56.3431H171.131V29.5455H179.847L179.839 25.2366H156.774ZM251.558 25.2366L242.047 56.3464H247.691L250.039 48.1685H260.794L263.374 56.3464H269.158L259.161 25.2366H251.558ZM274.922 25.2366V56.3447H283.988C292.963 56.3447 297.761 51.2768 297.761 43.189V37.6805C297.761 30.2147 293.54 25.2366 285.097 25.2366H274.922ZM196.636 28.9753C201.478 28.9753 203.788 32.2557 203.788 37.285V44.3951C203.788 49.2782 201.524 52.6109 196.636 52.6109C191.748 52.6109 189.48 49.2827 189.48 44.3951V39.7854V37.2801C189.48 32.2586 191.79 28.9753 196.636 28.9753ZM109.117 29.1467L113.248 43.6783H105.07L109.117 29.1467ZM255.328 29.1467L259.466 43.6783H251.285L255.328 29.1467ZM280.522 29.5488H284.831C289.766 29.5488 292.161 32.4806 292.161 37.547L292.174 43.2779C292.174 49.1813 289.463 52.0325 284.044 52.0325H280.522L280.522 29.5488Z" fill="black"/>
<path d="M27.0823 2.17833L43.9409 2.16992C47.7604 8.61517 50.9802 15.4079 53.7264 22.3772C54.8249 24.9665 55.9346 27.5558 56.8257 30.2264C58.1596 34.1383 59.841 37.9214 61.116 41.8558C63.6213 50.1366 65.8351 58.5042 68.0601 66.8634C68.8896 70.1925 70.0385 73.4291 70.7867 76.7778C69.6069 77.1617 68.4216 77.5316 67.2446 77.9268C65.9219 78.3471 64.518 78.3051 63.1477 78.4228C61.1861 78.6133 59.2161 78.7366 57.2517 78.9048L52.5214 75.6429C52.3056 74.1381 52.3393 72.5996 52.0563 71.1004C51.252 66.2945 49.991 61.5755 48.5562 56.9209L22.254 60.5722C22.0578 61.6287 21.8533 62.688 21.6543 63.7472C20.7744 67.5023 20.9958 71.3919 20.7604 75.217L14.7523 78.9244C14.3656 79.2214 13.8612 79.0589 13.4212 79.0533C11.936 78.9048 10.4424 78.9104 8.9628 78.731C7.45517 78.5433 5.84105 78.8123 4.43152 78.1286C3.25175 77.5793 2.03556 77.1085 0.869812 76.5284C2.2121 70.1477 3.99716 63.8678 5.73737 57.5851C7.88672 49.7471 10.4592 42.0324 13.1074 34.3514C16.8176 23.2487 21.531 12.4823 27.0823 2.17833ZM34.3879 24.8012C32.1993 31.1511 29.666 37.3722 27.3233 43.6661L41.3123 35.9599C39.9504 32.1628 38.5773 28.3713 37.1369 24.605C36.8623 23.9689 36.5877 23.1478 35.8311 22.9685C34.9315 23.075 34.6681 24.0866 34.3879 24.8012Z" fill="#BF2223"/>
</svg>
