<svg width="300" height="234" viewBox="0 0 300 234" fill="none" xmlns="http://www.w3.org/2000/svg">
<path d="M101.143 180.271C91.3093 180.271 82.0494 182.376 73.6627 188.446C65.9437 194.057 60.4443 202.565 60.4443 212.013C60.4443 224.626 74.8418 227.058 84.881 227.058C88.9091 227.058 92.7285 226.498 96.621 225.579L104.013 216.622C98.9864 218.528 92.6659 219.231 87.3159 219.231C80.6476 219.231 73.5756 216.887 73.5756 209.23C73.5756 203.352 76.9846 197.842 81.6633 194.012C86.3559 190.185 92.6798 188.098 98.3603 188.098C103.515 188.098 106.608 188.968 109.579 190.62L116.101 183.228C111.547 181.179 105.964 180.272 101.143 180.271ZM142.799 181.228L104.709 226.188H118.275L123.319 219.666C126.689 215.377 130.892 214.709 137.494 214.709H144.625L143.929 207.578H133.059L145.668 191.664L150.712 226.188H163.061L156.191 181.228H142.799ZM172.714 181.228L169.931 189.055H188.02L175.149 226.188H187.411L200.281 189.055H213.848L220.196 181.228H172.714ZM228.892 181.228L213.065 226.188H225.414L241.241 181.228H228.892ZM273.07 181.228L234.98 226.188H248.546L253.59 219.666C256.954 215.377 261.163 214.709 267.765 214.709H274.896L274.2 207.578H263.33L275.94 191.664L280.984 226.188H293.332L286.462 181.228H273.07Z" fill="#172983"/>
<path d="M90.7639 92.6293C67.1167 85.6339 41.3407 91.7109 37.41 92.7545C31.4617 94.3303 27.9659 95.9234 28.2094 97.7879C28.4006 99.1654 29.9208 100.112 37.2361 99.9342C54.6705 99.5098 69.117 100.098 78.2517 102.658C89.5639 105.813 90.9483 111.636 85.3548 123.08C82.7598 128.368 78.9334 133.84 73.1313 139.645C61.5477 151.26 47.0873 158.822 38.9266 162.941C31.0025 166.966 28.105 164.837 28.985 160.864C30.0633 156.012 52.5592 117.094 52.5592 117.094C54.2497 114.137 54.5453 111.361 52.5592 110.53C50.8477 109.806 47.7588 112.203 44.5516 115.915C31.4236 131.158 7.21625 177.537 6.76766 179.064C6.32574 180.518 7.46336 180.699 7.89804 180.709C18.1458 180.64 81.0623 162.03 101.37 123.988C112.063 103.962 106.65 97.3323 90.7639 92.6293Z" fill="#172983"/>
<path d="M122.106 74.3348C109.402 85.3235 128.249 103.422 137.108 113.799C145.728 123.887 156.164 136.688 156.654 141.085C156.874 143.099 156.474 145.391 154.056 146.887C150.111 149.36 133.818 151.732 100.111 151.708C92.8058 151.698 91.3065 152.418 91.1152 153.726C91.0178 154.411 90.7917 156.001 100.097 158.331C100.351 158.401 138.726 165.459 159.19 158.331C180.1 151.2 174.837 139.157 171.09 132.204C165.313 121.49 138.667 90.3361 136.468 86.0992C134.413 82.1302 137.401 80.3979 137.401 80.3979C137.401 80.3979 141.864 75.034 177.397 75.3401C184.716 75.4027 186.232 74.6374 186.403 73.3156C186.549 72.2268 184.458 69.8579 177.494 68.3691C170.927 66.9568 137.349 61.158 122.106 74.3348Z" fill="#F08A00"/>
<path d="M76.2775 9.6329C73.446 10.4608 67.7342 12.0366 68.2178 14.1167C68.5273 15.4525 69.6613 16.0891 76.2914 16.0821C91.1274 16.0647 102.662 17.0283 110.555 18.444C126.622 21.3452 122.838 29.4502 118.277 37.2108C107.198 56.0993 77.2793 77.3462 75.5437 78.5463C73.2617 80.1186 74.5104 81.037 76.5071 80.2891C100.759 71.2692 125.21 55.7097 135.079 36.8073C143.455 20.7747 137.455 13.1671 124.688 9.5842C101.9 3.17324 78.2708 9.04502 76.2775 9.6329Z" fill="#E2001A"/>
</svg>
