<svg width="300" height="102" viewBox="0 0 300 102" fill="none" xmlns="http://www.w3.org/2000/svg">
<g clip-path="url(#clip0_83_40)">
<path d="M146.808 66.1693C149.387 66.1693 151.671 65.4418 153.67 63.9927C155.669 62.5435 157.106 60.6626 158.023 58.3499H164.53C163.293 62.3306 161.034 65.5069 157.787 67.932C154.344 70.4044 150.275 71.6406 145.543 71.6406C139.628 71.6406 134.837 69.6236 131.11 65.6074C127.508 61.6799 125.71 56.7351 125.71 50.8793C125.71 44.9645 127.508 40.0551 131.11 36.1513C134.813 32.1232 139.628 30.1181 145.543 30.1181C150.269 30.1181 154.356 31.3543 157.787 33.8267C161.063 36.2459 163.323 39.4399 164.53 43.4088H158.023C157.106 41.102 155.657 39.2211 153.67 37.7719C151.682 36.3169 149.399 35.5953 146.808 35.5953C144.218 35.5953 142.035 35.9975 140.243 36.8019C138.451 37.6063 136.925 38.7065 135.688 40.1083C133.056 43.0066 131.743 46.6147 131.743 50.9326C131.743 55.2505 133.056 58.8585 135.688 61.7568C138.38 64.7675 142.077 66.2699 146.808 66.2699" fill="#4E585A"/>
<path d="M193.617 30.2122V36.2453H192.889C188.542 36.2453 184.964 37.9902 182.243 41.4859C179.664 44.816 178.374 48.8204 178.374 53.434V71.1787H172.341V30.8983H178.374V40.8353C179.664 36.6476 182.456 33.56 186.773 31.5489C188.548 30.6913 190.695 30.2595 193.221 30.2595L193.617 30.2122Z" fill="#4E585A"/>
<path d="M217.021 35.7447C213.313 35.7447 210.219 36.904 207.676 39.2108C205.31 41.417 203.861 44.2917 203.322 47.8465H230.708C230.17 44.3035 228.715 41.4584 226.355 39.2108C223.823 36.904 220.712 35.7447 217.009 35.7447M217.494 66.3838C222.918 66.3838 226.84 64.1302 229.206 59.6408H235.831C234.435 63.2962 232.217 66.2655 229.206 68.5132C226.172 70.7667 222.286 71.8965 217.494 71.8965C211.402 71.8965 206.493 69.8795 202.648 65.8633C198.939 61.9417 197.088 57.0501 197.088 51.1352C197.088 45.1612 198.857 40.2518 202.406 36.4071C206.167 32.3791 211.041 30.3739 217.074 30.3739C223.108 30.3739 227.958 32.3909 231.743 36.4071C235.286 40.2814 237.061 45.2203 237.061 51.1352V53.5544H203.287C203.713 57.263 205.191 60.2974 207.717 62.7225C210.296 65.189 213.573 66.4252 217.536 66.4252" fill="#4E585A"/>
<path d="M261.702 66.1696C266.055 66.1696 269.51 64.6672 271.994 61.6566C274.413 58.8056 275.626 55.2093 275.626 50.8323C275.626 46.4553 274.413 42.9063 271.994 40.0081C269.468 36.9974 266.02 35.495 261.702 35.495C257.384 35.495 253.894 36.9974 251.41 40.0081C248.991 42.8531 247.784 46.4553 247.784 50.8323C247.784 55.2093 248.991 58.7583 251.41 61.6566C253.936 64.6672 257.384 66.1696 261.702 66.1696ZM261.702 30.0888C267.735 30.0888 272.586 32.1058 276.371 36.122C279.92 39.9903 281.694 44.876 281.694 50.8501C281.694 56.8241 279.92 61.7335 276.371 65.5781C272.609 69.6062 267.735 71.6113 261.702 71.6113C255.669 71.6113 250.819 69.5943 247.033 65.5781C243.49 61.7039 241.716 56.7649 241.716 50.8501C241.716 44.876 243.49 39.9666 247.033 36.122C250.795 32.0939 255.669 30.0888 261.702 30.0888Z" fill="#4E585A"/>
<path d="M293.617 37.8723C294.143 37.8723 294.563 37.7717 294.877 37.5706C295.19 37.3695 295.344 37.0915 295.344 36.7248C295.344 36.364 295.22 36.0801 294.972 35.873C294.717 35.666 294.256 35.5596 293.576 35.5596H291.979V37.8723H293.617ZM296.645 36.5769C296.645 37.0028 296.515 37.3813 296.267 37.7126C296.019 38.0438 295.67 38.2804 295.232 38.4164C295.924 38.6176 296.344 39.1854 296.492 40.1081C296.527 40.3447 296.551 40.5636 296.551 40.7469V41.6342H295.255V40.9184C295.255 40.3802 295.196 39.9898 295.084 39.7532C294.847 39.2504 294.421 39.002 293.806 39.002H291.979V41.6342H290.666V34.4771H293.712C294.723 34.4771 295.468 34.6723 295.936 35.0568C296.409 35.4472 296.645 35.9618 296.645 36.6006M293.463 43.5802C294.995 43.5802 296.297 43.0419 297.379 41.9654C297.876 41.4626 298.272 40.877 298.562 40.2027C298.846 39.5344 298.994 38.8187 298.994 38.0616C298.994 37.3044 298.846 36.5887 298.562 35.9204C298.272 35.252 297.876 34.6664 297.379 34.1636C296.297 33.0871 294.995 32.543 293.463 32.543C291.925 32.543 290.63 33.0871 289.577 34.1636C288.501 35.252 287.957 36.5533 287.957 38.0734C287.957 38.8246 288.104 39.5344 288.394 40.2027C288.678 40.877 289.074 41.4626 289.577 41.9654C290.63 43.0419 291.925 43.5802 293.463 43.5802ZM293.463 31.6321C294.356 31.6321 295.19 31.7977 295.977 32.1407C296.758 32.4779 297.444 32.9393 298.024 33.5189C298.609 34.1045 299.071 34.7847 299.408 35.5655C299.745 36.3522 299.916 37.1862 299.916 38.0793C299.916 38.9665 299.745 39.8005 299.408 40.5754C299.071 41.3562 298.609 42.0364 298.024 42.616C297.444 43.2016 296.758 43.657 295.977 44.0001C295.19 44.3373 294.356 44.5088 293.463 44.5088C292.576 44.5088 291.742 44.3373 290.967 44.0001C290.192 43.657 289.512 43.2016 288.927 42.616C288.347 42.0364 287.886 41.3562 287.548 40.5754C287.205 39.8005 287.04 38.9665 287.04 38.0793C287.04 37.1862 287.205 36.3522 287.548 35.5655C287.886 34.7847 288.347 34.1045 288.927 33.5189C289.512 32.9393 290.192 32.4779 290.967 32.1407C291.742 31.7977 292.576 31.6321 293.463 31.6321Z" fill="#4E585A"/>
<path d="M44.6809 47.4463L85.9077 23.6684L44.6809 -0.109459L3.3949 23.7276L44.6809 47.4463Z" fill="#4E585A"/>
<path d="M40.4255 53.4041L-0.8013 29.6262V77.2411L40.4255 101.078V53.4041Z" fill="#4E585A"/>
<path d="M46.8085 53.404V101.064L88.0851 77.2338V29.5742L46.8085 53.404Z" fill="#68BF4B"/>
</g>
<defs>
<clipPath id="clip0_83_40">
<rect width="300" height="101.064" fill="white"/>
</clipPath>
</defs>
</svg>
